# xmcd
#
# Track frame offsets:
#	150
#	14422
#	29244
#	40439
#	49754
#	60872
#	77394
#	90666
#	109649
#	122981
#	139978
#	156532
#	171441
#	187724
#	207314
#	225507
#	244644
#	261119
#	280035
#	298392
#
# Disc length: 4177 seconds
#
# Revision: 1
# Processed by: cddbd v1.5.2PL0 Copyright (c) Steve Scherf et al.
# Submitted via: audiograbber 1.83.01
#
DISCID=1f104f14
DTITLE=Mannick - cd.2 - Chanter la vie
DYEAR=2007
DGENRE=Chanson
TTITLE0=La ville était comme un rempart
TTITLE1=L' age d'or du village
TTITLE2=Quand ma rivière
TTITLE3=Les chasseurs
TTITLE4=Les poux
TTITLE5=Ceux qui mangent les fruits défendus
TTITLE6=Si vraiment vous ne m'aimez pas
TTITLE7=France est une étoile
TTITLE8=L a dame d'en face
TTITLE9=Garder sa terre au Brésil
TTITLE10=Papa  Freud
TTITLE11=Je suis un pigeon voyageur
TTITLE12=Demain je fais un régime
TTITLE13=Rien que des chansons d'amour
TTITLE14=Chanson charabia
TTITLE15=Retrouvailles
TTITLE16=Ma Loire
TTITLE17=Chanson en prison
TTITLE18=Fils de la terre
TTITLE19=Je ne fais que chanter la vie
EXTD=
EXTT0=
EXTT1=
EXTT2=
EXTT3=
EXTT4=
EXTT5=
EXTT6=
EXTT7=
EXTT8=
EXTT9=
EXTT10=
EXTT11=
EXTT12=
EXTT13=
EXTT14=
EXTT15=
EXTT16=
EXTT17=
EXTT18=
EXTT19=
PLAYORDER=
